<?xml version="1.0" encoding="UTF-8" standalone="no"?>
<svg xmlns="http://www.w3.org/2000/svg" width="1254" height="1254" viewBox="0 0 1254 1254" version="1.1">
  <title>Elder Guru Round Button</title>
  <desc>Black silhouette of a wise old guru with long hair, moustache and long beard inside a round button.</desc>
  <g fill="#000000" stroke="none" fill-rule="evenodd">
    <path d="M 540 758 L 530 776 L 524 796 L 523 818 L 524 819 L 525 831 L 530 846 L 537 860 L 561 895 L 575 921 L 581 939 L 583 956 L 587 937 L 586 921 L 584 911 L 575 888 L 551 851 L 543 835 L 538 820 L 537 810 L 536 809 L 536 780 L 539 764 L 541 760 L 541 758 Z M 712 757 L 716 772 L 717 786 L 718 787 L 717 811 L 714 825 L 710 836 L 700 855 L 682 882 L 674 898 L 669 912 L 667 921 L 666 937 L 667 938 L 667 946 L 669 954 L 673 964 L 674 963 L 675 941 L 681 920 L 693 896 L 718 858 L 724 845 L 729 828 L 730 801 L 729 800 L 728 790 L 723 775 Z M 597 657 L 597 658 L 599 658 L 609 665 L 622 670 L 636 669 L 656 658 L 652 655 L 647 654 L 634 654 L 633 655 L 606 654 Z M 765 464 L 759 461 L 749 460 L 748 461 L 743 461 L 727 467 L 707 468 L 689 463 L 678 463 L 672 466 L 669 470 L 674 470 L 680 472 L 696 482 L 706 485 L 715 486 L 733 482 L 740 478 L 751 469 L 757 466 Z M 488 464 L 499 467 L 515 479 L 530 485 L 548 485 L 563 479 L 575 471 L 585 470 L 580 465 L 576 463 L 564 463 L 546 468 L 527 467 L 505 460 L 495 461 Z M 472 397 L 467 407 L 458 420 L 437 442 L 419 455 L 396 468 L 383 477 L 368 492 L 363 499 L 357 511 L 355 518 L 354 538 L 356 548 L 362 562 L 368 581 L 369 608 L 363 628 L 354 643 L 364 639 L 375 631 L 387 616 L 393 603 L 396 591 L 396 584 L 397 583 L 396 571 L 397 570 L 400 576 L 403 589 L 403 613 L 398 631 L 388 648 L 373 663 L 355 674 L 330 687 L 322 693 L 305 711 L 297 725 L 291 743 L 290 767 L 293 779 L 284 787 L 260 797 L 253 802 L 246 810 L 241 819 L 239 827 L 239 840 L 242 851 L 247 859 L 252 850 L 262 840 L 273 833 L 293 824 L 307 815 L 320 802 L 327 790 L 331 777 L 332 763 L 335 748 L 341 734 L 347 725 L 359 713 L 369 706 L 391 695 L 409 684 L 410 686 L 398 698 L 374 718 L 363 733 L 356 751 L 355 779 L 352 794 L 347 805 L 335 820 L 322 829 L 253 859 L 240 866 L 238 866 L 219 876 L 202 887 L 181 908 L 174 921 L 175 925 L 206 966 L 238 1002 L 276 1038 L 315 1069 L 366 1102 L 406 1123 L 451 1142 L 484 1153 L 497 1156 L 491 1140 L 468 1098 L 445 1063 L 407 1011 L 389 983 L 379 964 L 368 936 L 362 908 L 362 897 L 361 896 L 362 872 L 365 856 L 371 838 L 378 824 L 384 816 L 385 821 L 381 840 L 381 856 L 380 857 L 381 879 L 382 880 L 382 888 L 384 894 L 385 904 L 396 941 L 404 960 L 417 985 L 438 1019 L 469 1064 L 491 1100 L 507 1133 L 517 1161 L 548 1168 L 569 1170 L 577 1172 L 586 1172 L 587 1173 L 601 1173 L 602 1174 L 659 1174 L 660 1173 L 673 1173 L 674 1172 L 699 1170 L 700 1169 L 727 1165 L 735 1163 L 737 1161 L 748 1129 L 763 1099 L 787 1060 L 825 1004 L 839 980 L 851 956 L 864 921 L 872 884 L 873 844 L 872 843 L 871 828 L 868 818 L 869 815 L 875 823 L 883 839 L 887 850 L 891 868 L 892 902 L 886 934 L 879 954 L 862 987 L 843 1016 L 814 1055 L 791 1089 L 770 1125 L 757 1153 L 756 1158 L 785 1150 L 819 1138 L 842 1127 L 844 1127 L 888 1104 L 936 1073 L 962 1053 L 991 1028 L 1024 995 L 1039 978 L 1065 945 L 1080 923 L 1076 913 L 1068 902 L 1058 892 L 1043 881 L 1007 862 L 1005 862 L 973 847 L 966 845 L 930 828 L 922 823 L 911 812 L 907 806 L 901 792 L 899 783 L 899 765 L 898 764 L 897 749 L 890 732 L 882 721 L 872 711 L 859 701 L 842 684 L 843 682 L 855 691 L 888 708 L 904 722 L 912 733 L 916 741 L 921 759 L 921 766 L 922 767 L 922 774 L 924 783 L 930 797 L 935 804 L 945 814 L 955 821 L 982 834 L 994 842 L 1001 849 L 1005 855 L 1006 859 L 1007 859 L 1012 850 L 1014 843 L 1015 830 L 1013 820 L 1010 813 L 1001 802 L 984 792 L 979 791 L 968 786 L 961 779 L 963 771 L 963 763 L 964 762 L 963 745 L 958 727 L 953 717 L 941 701 L 931 692 L 916 682 L 888 668 L 877 660 L 868 651 L 860 640 L 852 621 L 851 611 L 850 610 L 850 591 L 854 574 L 856 571 L 857 572 L 857 588 L 859 598 L 867 617 L 871 623 L 882 634 L 888 638 L 900 643 L 890 626 L 884 603 L 884 590 L 885 589 L 886 579 L 890 566 L 897 550 L 899 542 L 899 534 L 900 533 L 899 518 L 895 506 L 890 497 L 884 489 L 871 477 L 853 465 L 838 457 L 818 443 L 799 424 L 782 398 L 781 398 L 787 422 L 787 427 L 794 464 L 795 495 L 790 513 L 783 526 L 767 548 L 763 555 L 758 569 L 756 588 L 757 589 L 758 603 L 762 614 L 761 617 L 747 608 L 717 579 L 694 566 L 681 563 L 679 561 L 680 560 L 680 549 L 676 540 L 669 533 L 663 530 L 661 530 L 667 538 L 669 544 L 669 553 L 665 559 L 651 558 L 645 561 L 639 566 L 632 569 L 618 568 L 607 560 L 602 558 L 588 559 L 584 552 L 584 545 L 587 537 L 592 530 L 584 533 L 578 539 L 575 544 L 573 550 L 573 560 L 574 561 L 572 563 L 557 567 L 539 577 L 528 586 L 504 610 L 492 617 L 491 615 L 494 609 L 497 594 L 497 577 L 495 567 L 487 549 L 468 522 L 461 507 L 458 493 L 458 475 L 459 474 L 460 459 L 462 453 L 467 420 L 469 415 L 471 402 L 473 398 Z M 464 590 L 465 593 L 459 614 L 460 627 L 462 632 L 469 639 L 481 643 L 495 641 L 503 637 L 514 628 L 531 607 L 545 593 L 554 586 L 568 579 L 585 575 L 600 576 L 615 582 L 625 590 L 620 603 L 615 610 L 607 617 L 578 631 L 569 637 L 545 658 L 529 667 L 520 670 L 500 672 L 482 668 L 470 661 L 461 652 L 455 641 L 457 654 L 464 667 L 477 679 L 487 684 L 463 708 L 454 722 L 449 733 L 443 756 L 443 778 L 446 791 L 447 791 L 448 774 L 452 759 L 461 740 L 467 731 L 490 708 L 514 694 L 517 695 L 506 710 L 497 726 L 497 728 L 493 735 L 486 758 L 485 771 L 484 772 L 485 795 L 489 811 L 494 822 L 495 822 L 494 818 L 494 798 L 495 797 L 495 790 L 499 771 L 506 752 L 513 738 L 523 722 L 535 707 L 574 670 L 586 654 L 596 644 L 603 639 L 614 634 L 633 633 L 644 636 L 657 644 L 668 655 L 683 674 L 720 709 L 733 726 L 747 751 L 755 773 L 758 787 L 758 794 L 759 795 L 759 821 L 758 822 L 759 823 L 763 815 L 768 797 L 768 791 L 769 790 L 768 761 L 759 732 L 746 708 L 735 694 L 737 693 L 753 701 L 762 707 L 774 717 L 787 732 L 794 743 L 801 758 L 806 777 L 807 792 L 810 781 L 811 762 L 806 737 L 801 725 L 791 709 L 779 695 L 767 685 L 768 683 L 773 681 L 783 674 L 790 666 L 797 652 L 798 641 L 793 651 L 782 662 L 771 668 L 754 672 L 733 670 L 724 667 L 708 658 L 688 640 L 674 630 L 662 624 L 657 623 L 645 616 L 633 603 L 629 592 L 629 589 L 640 581 L 653 576 L 669 575 L 685 579 L 694 583 L 707 592 L 723 608 L 733 621 L 746 634 L 758 641 L 767 643 L 778 642 L 784 639 L 792 630 L 794 624 L 794 613 L 788 592 L 789 589 L 807 613 L 814 630 L 815 640 L 816 641 L 815 655 L 812 665 L 804 678 L 816 692 L 827 713 L 834 738 L 835 765 L 834 766 L 833 778 L 828 795 L 815 822 L 812 832 L 812 837 L 811 838 L 812 891 L 811 892 L 810 906 L 804 926 L 798 939 L 785 957 L 775 967 L 762 976 L 761 975 L 767 969 L 774 959 L 783 940 L 787 923 L 787 911 L 788 910 L 787 895 L 784 879 L 777 860 L 769 846 L 772 862 L 772 872 L 773 873 L 772 899 L 769 914 L 759 939 L 749 954 L 735 970 L 729 981 L 725 996 L 725 1018 L 724 1019 L 723 1031 L 720 1041 L 714 1053 L 702 1068 L 692 1076 L 691 1074 L 693 1072 L 701 1054 L 704 1039 L 703 1017 L 698 1000 L 692 989 L 692 998 L 693 999 L 692 1021 L 687 1041 L 683 1051 L 673 1069 L 649 1102 L 636 1124 L 633 1134 L 633 1141 L 632 1142 L 633 1151 L 632 1152 L 621 1140 L 615 1128 L 609 1108 L 603 1095 L 594 1081 L 577 1060 L 568 1044 L 564 1033 L 561 1019 L 561 989 L 557 996 L 551 1014 L 550 1043 L 554 1059 L 563 1075 L 562 1076 L 557 1073 L 545 1061 L 535 1045 L 531 1034 L 529 1024 L 528 994 L 525 983 L 519 971 L 506 956 L 495 940 L 485 916 L 481 895 L 481 867 L 485 847 L 483 848 L 480 853 L 470 877 L 466 897 L 466 919 L 467 920 L 468 931 L 472 944 L 480 960 L 490 973 L 489 974 L 481 969 L 465 953 L 456 940 L 446 916 L 443 904 L 442 887 L 441 886 L 442 836 L 438 821 L 427 799 L 422 784 L 419 770 L 418 751 L 419 750 L 420 734 L 426 714 L 436 694 L 449 678 L 441 664 L 438 654 L 439 630 L 447 612 Z M 807 463 L 816 476 L 837 496 L 841 502 L 844 511 L 844 526 L 841 537 L 831 558 L 826 573 L 826 576 L 823 582 L 817 588 L 812 589 L 809 586 L 805 578 L 802 566 L 802 543 L 803 542 L 805 519 L 806 518 L 808 520 L 811 527 L 813 537 L 813 544 L 812 545 L 812 551 L 813 551 L 821 542 L 827 532 L 829 525 L 829 514 L 825 505 L 817 496 L 811 485 L 807 472 L 807 467 L 806 466 Z M 446 463 L 447 464 L 447 470 L 443 484 L 437 495 L 428 506 L 425 512 L 425 517 L 424 518 L 425 527 L 429 537 L 433 543 L 441 551 L 441 532 L 443 525 L 447 518 L 449 523 L 449 530 L 451 539 L 451 567 L 449 576 L 445 585 L 442 589 L 439 589 L 431 583 L 427 575 L 424 562 L 417 548 L 410 530 L 409 512 L 411 505 L 416 496 L 433 481 L 442 470 Z M 774 429 L 767 417 L 759 409 L 752 404 L 738 398 L 728 396 L 706 396 L 690 399 L 678 403 L 662 412 L 653 421 L 648 430 L 645 442 L 645 462 L 646 463 L 648 479 L 649 479 L 650 472 L 653 464 L 660 451 L 676 435 L 691 427 L 711 422 L 719 422 L 720 421 L 736 422 L 753 426 L 768 433 L 775 438 L 777 438 Z M 492 411 L 483 422 L 479 430 L 477 438 L 491 430 L 504 425 L 517 422 L 534 421 L 535 422 L 549 423 L 565 428 L 576 434 L 589 446 L 595 457 L 598 470 L 602 524 L 605 536 L 606 519 L 607 518 L 607 503 L 608 502 L 608 481 L 609 480 L 609 445 L 605 429 L 598 418 L 590 411 L 578 404 L 567 400 L 547 396 L 525 396 L 512 399 L 503 403 Z M 650 145 L 639 156 L 634 166 L 632 174 L 632 187 L 631 188 L 632 189 L 632 205 L 633 206 L 634 219 L 643 198 L 651 187 L 663 176 L 679 168 L 688 166 L 696 166 L 697 165 L 710 166 L 728 171 L 740 177 L 737 178 L 725 175 L 710 175 L 709 176 L 698 177 L 679 185 L 668 193 L 655 207 L 645 224 L 637 249 L 635 268 L 642 251 L 652 235 L 670 217 L 686 208 L 701 204 L 724 204 L 743 209 L 759 217 L 773 227 L 789 243 L 797 253 L 825 298 L 824 300 L 799 268 L 779 248 L 770 241 L 748 229 L 735 225 L 721 224 L 720 223 L 706 224 L 697 226 L 686 230 L 676 236 L 656 256 L 652 262 L 644 281 L 659 277 L 676 276 L 677 275 L 692 276 L 715 282 L 733 292 L 747 306 L 753 315 L 759 328 L 769 359 L 779 379 L 799 406 L 823 428 L 844 442 L 865 453 L 877 461 L 896 479 L 906 496 L 909 504 L 912 519 L 911 543 L 900 585 L 900 607 L 903 620 L 909 634 L 916 644 L 930 656 L 939 662 L 958 681 L 966 692 L 971 702 L 975 718 L 975 732 L 973 740 L 974 741 L 978 731 L 979 721 L 980 720 L 980 702 L 978 692 L 974 681 L 970 673 L 958 657 L 925 625 L 919 615 L 916 606 L 916 601 L 915 600 L 916 586 L 919 576 L 930 552 L 936 523 L 936 509 L 935 508 L 934 496 L 930 482 L 922 465 L 911 449 L 899 437 L 885 427 L 843 402 L 829 391 L 814 376 L 797 353 L 779 318 L 768 302 L 753 286 L 738 274 L 728 268 L 729 267 L 736 267 L 750 271 L 757 274 L 771 283 L 790 303 L 808 330 L 823 349 L 851 376 L 894 407 L 912 425 L 919 435 L 925 447 L 926 452 L 927 452 L 927 434 L 923 420 L 919 412 L 909 399 L 885 376 L 876 360 L 872 345 L 868 320 L 862 294 L 849 262 L 831 233 L 811 207 L 780 177 L 767 167 L 748 155 L 722 143 L 696 137 L 672 137 L 660 140 Z M 602 144 L 596 141 L 581 137 L 556 137 L 541 140 L 529 144 L 502 157 L 477 174 L 463 186 L 446 203 L 421 235 L 403 265 L 396 281 L 391 297 L 381 347 L 377 361 L 367 378 L 341 403 L 334 413 L 329 424 L 327 432 L 327 438 L 326 439 L 327 452 L 328 452 L 330 444 L 333 438 L 346 420 L 362 405 L 406 373 L 428 352 L 447 328 L 465 301 L 477 288 L 484 282 L 501 272 L 513 268 L 518 268 L 519 267 L 524 267 L 525 268 L 505 283 L 486 302 L 475 318 L 456 354 L 446 368 L 433 383 L 421 394 L 405 406 L 359 434 L 346 446 L 332 465 L 326 477 L 320 495 L 319 505 L 318 506 L 318 528 L 325 556 L 337 583 L 338 605 L 335 615 L 330 624 L 297 657 L 285 673 L 280 683 L 276 694 L 274 704 L 274 722 L 277 735 L 280 742 L 281 716 L 284 706 L 290 693 L 299 680 L 316 663 L 337 646 L 344 637 L 351 622 L 354 608 L 354 588 L 349 565 L 343 546 L 341 524 L 342 523 L 343 510 L 346 500 L 355 483 L 378 460 L 425 432 L 439 421 L 457 403 L 470 386 L 483 362 L 495 327 L 501 314 L 509 303 L 517 295 L 527 288 L 539 282 L 556 277 L 578 275 L 579 276 L 594 277 L 609 281 L 609 278 L 602 263 L 596 254 L 584 241 L 576 235 L 565 229 L 553 225 L 539 224 L 538 223 L 524 224 L 504 230 L 492 236 L 476 247 L 458 264 L 429 301 L 428 299 L 453 258 L 462 246 L 476 231 L 496 216 L 508 210 L 530 204 L 552 204 L 570 209 L 582 216 L 602 236 L 608 245 L 615 259 L 618 268 L 617 252 L 610 228 L 604 216 L 596 204 L 583 191 L 569 182 L 555 177 L 544 176 L 543 175 L 529 175 L 521 177 L 516 176 L 525 171 L 543 166 L 558 165 L 577 169 L 590 176 L 604 189 L 613 203 L 618 214 L 619 219 L 620 218 L 620 210 L 622 200 L 621 172 L 619 165 L 613 154 Z M 618 30 L 617 31 L 594 31 L 593 32 L 580 32 L 579 33 L 561 34 L 560 35 L 553 35 L 552 36 L 539 37 L 538 38 L 511 42 L 451 58 L 420 69 L 387 83 L 339 108 L 318 121 L 282 146 L 240 181 L 200 221 L 162 267 L 131 313 L 116 339 L 98 375 L 79 422 L 67 459 L 58 495 L 51 532 L 49 553 L 48 554 L 48 563 L 47 564 L 47 574 L 46 575 L 46 589 L 45 590 L 45 651 L 46 652 L 46 667 L 47 668 L 47 678 L 48 679 L 48 688 L 49 689 L 51 710 L 61 760 L 68 786 L 71 793 L 71 796 L 81 826 L 97 865 L 123 915 L 155 964 L 190 1008 L 236 1055 L 279 1091 L 301 1107 L 338 1131 L 361 1144 L 397 1162 L 433 1177 L 482 1193 L 529 1204 L 553 1207 L 554 1208 L 569 1209 L 570 1210 L 579 1210 L 580 1211 L 613 1212 L 614 1213 L 639 1213 L 640 1212 L 662 1212 L 663 1211 L 674 1211 L 675 1210 L 701 1208 L 749 1199 L 780 1191 L 811 1181 L 814 1179 L 835 1172 L 847 1166 L 854 1164 L 867 1157 L 869 1157 L 905 1138 L 930 1123 L 973 1093 L 1017 1056 L 1054 1019 L 1089 977 L 1122 929 L 1135 907 L 1153 872 L 1173 824 L 1188 777 L 1202 713 L 1205 683 L 1206 682 L 1206 674 L 1207 673 L 1207 661 L 1208 660 L 1209 605 L 1208 604 L 1208 582 L 1207 581 L 1205 551 L 1204 550 L 1203 536 L 1202 535 L 1202 530 L 1195 493 L 1179 435 L 1158 381 L 1133 331 L 1103 283 L 1068 237 L 1044 210 L 1020 186 L 978 150 L 931 117 L 895 96 L 873 85 L 834 68 L 787 52 L 736 40 L 705 36 L 704 35 L 697 35 L 696 34 L 677 33 L 676 32 Z M 621 58 L 673 60 L 674 61 L 684 61 L 685 62 L 692 62 L 693 63 L 700 63 L 701 64 L 719 66 L 772 78 L 815 92 L 853 108 L 885 124 L 909 138 L 941 159 L 965 177 L 1000 207 L 1037 245 L 1073 290 L 1103 336 L 1120 367 L 1127 383 L 1129 385 L 1149 434 L 1156 455 L 1166 492 L 1166 496 L 1172 520 L 1176 551 L 1177 552 L 1177 561 L 1178 562 L 1179 581 L 1180 582 L 1180 600 L 1181 601 L 1180 662 L 1179 663 L 1179 674 L 1178 675 L 1175 706 L 1174 707 L 1169 739 L 1162 768 L 1144 823 L 1130 856 L 1116 884 L 1100 912 L 1068 959 L 1033 1001 L 996 1038 L 950 1076 L 897 1111 L 845 1138 L 803 1155 L 752 1170 L 701 1180 L 676 1182 L 675 1183 L 664 1183 L 663 1184 L 643 1184 L 642 1185 L 591 1184 L 590 1183 L 555 1180 L 554 1179 L 522 1174 L 493 1167 L 449 1153 L 395 1130 L 349 1105 L 307 1077 L 259 1038 L 212 990 L 177 946 L 146 898 L 126 860 L 103 804 L 91 765 L 80 715 L 80 709 L 79 708 L 77 688 L 76 687 L 76 678 L 75 677 L 75 668 L 74 667 L 74 653 L 73 652 L 73 588 L 74 587 L 74 575 L 75 574 L 75 565 L 76 564 L 76 556 L 77 555 L 80 527 L 90 481 L 105 432 L 124 386 L 137 360 L 154 330 L 179 292 L 203 261 L 222 239 L 266 196 L 313 159 L 357 131 L 404 107 L 443 91 L 470 82 L 491 77 L 495 75 L 499 75 L 503 73 L 549 64 L 556 64 L 557 63 L 564 63 L 573 61 L 582 61 L 583 60 L 620 59 Z"/>
  </g>
</svg>
