<?xml version="1.0" encoding="UTF-8"?>
<svg xmlns="http://www.w3.org/2000/svg" width="512" height="512" viewBox="0 0 512 512" role="img" aria-labelledby="title desc">
  <title id="title">Modern Guru Floating Button</title>
  <desc id="desc">Round floating button icon with a modern blue gradient and a white guru illustration.</desc>
  <defs>
    <linearGradient id="bgGradient" x1="0" y1="0" x2="1" y2="1">
      <stop offset="0%" stop-color="#7A7CFF"/>
      <stop offset="55%" stop-color="#4F8CFF"/>
      <stop offset="100%" stop-color="#1CC8EE"/>
    </linearGradient>
    <radialGradient id="shine" cx="30%" cy="20%" r="75%">
      <stop offset="0%" stop-color="#FFFFFF" stop-opacity="0.34"/>
      <stop offset="45%" stop-color="#FFFFFF" stop-opacity="0.10"/>
      <stop offset="100%" stop-color="#FFFFFF" stop-opacity="0"/>
    </radialGradient>
    <filter id="buttonShadow" x="-25%" y="-25%" width="150%" height="150%">
      <feOffset dx="0" dy="10" in="SourceAlpha" result="off"/>
      <feGaussianBlur in="off" stdDeviation="12" result="blur"/>
      <feColorMatrix in="blur" type="matrix"
        values="0 0 0 0 0.05  0 0 0 0 0.10  0 0 0 0 0.25  0 0 0 0.30 0" result="shadow"/>
      <feMerge>
        <feMergeNode in="shadow"/>
        <feMergeNode in="SourceGraphic"/>
      </feMerge>
    </filter>
    <clipPath id="circleClip">
      <circle cx="256" cy="256" r="224"/>
    </clipPath>
  </defs>

  <g filter="url(#buttonShadow)">
    <circle cx="256" cy="256" r="224" fill="url(#bgGradient)"/>
    <circle cx="256" cy="256" r="224" fill="url(#shine)"/>
    <circle cx="256" cy="256" r="223" fill="none" stroke="#FFFFFF" stroke-opacity="0.22" stroke-width="2"/>
    <g clip-path="url(#circleClip)" transform="translate(31 31) scale(0.88)" fill="#FFFFFF">
      <path d="M176.55,190.41a1.29,1.29,0,0,0-.4,2.52v2.12l.86.2V192.9a1.29,1.29,0,0,0-.46-2.49Zm155,0a1.29,1.29,0,0,0-.39,2.52v2.27l.86.05V192.9a1.28,1.28,0,0,0,.82-1.2A1.29,1.29,0,0,0,331.55,190.41Zm-155,0a1.29,1.29,0,0,0-.4,2.52v2.12l.86.2V192.9a1.29,1.29,0,0,0-.46-2.49ZM257.67.07h-3.34C113.72.93,0,115.18,0,256,0,397.35,114.58,511.94,255.93,511.94a255,255,0,0,0,116.23-27.85l0,.07,1-.51,1-.52q5.26-2.75,10.38-5.72l.86-.5.84-.5v1c0-.05,0-.11,0-.16,0-.31.08-.63.13-.94,0,0,0-.06,0-.09a255.69,255.69,0,0,0,31.26-21.85c1.92-1.57,3.83-3.17,5.71-4.8a257.64,257.64,0,0,0,31.77-32.86v.16c.28-.36.57-.72.86-1.07l.86-1.09A254.87,254.87,0,0,0,512,256C512,115.19,398.28.93,257.67.07ZM122.79,466.45l-.05,0v-28.1l.05-1.4Zm1.9-32.07s0,0,0-.05l0,.05Zm330.43-28.94q-2.25,3-4.59,5.92v0a.62.62,0,0,1,0-.13c0-.07,0-.14,0-.21s0-.08,0-.12,0-.12,0-.18,0-.13,0-.2a.76.76,0,0,0,0-.15c0-.06,0-.12,0-.19a.76.76,0,0,1,0-.15c0-.08,0-.16,0-.23s0-.08,0-.12a2.45,2.45,0,0,1,0-.27v-.09c0-.09,0-.19,0-.28a.28.28,0,0,1,0-.09c0-.09,0-.19,0-.28a.34.34,0,0,0,0-.1c0-.08,0-.17,0-.25a.61.61,0,0,1,0-.14c0-.09,0-.19,0-.28a.34.34,0,0,0,0-.1c0-.09,0-.18,0-.26a.81.81,0,0,1,0-.16,1.21,1.21,0,0,1,0-.19c0-.07,0-.14,0-.22s0-.18,0-.28a.49.49,0,0,1,0-.12c0-.08,0-.17,0-.26a.91.91,0,0,0,0-.17c0-.11,0-.21,0-.32s0-.06,0-.09,0-.22,0-.32a.49.49,0,0,1,0-.12c0-.1,0-.2,0-.3a.71.71,0,0,0,0-.14l0-.43h0c0-.11,0-.21,0-.32a.76.76,0,0,1,0-.15c0-.12,0-.23,0-.35v-.1l0-.4V403c0-.1,0-.2,0-.3s0-.12,0-.18l0-.44v0c0-.43.05-.87.07-1.32a.86.86,0,0,0,0-.16c0-.26,0-.52.05-.79a1.62,1.62,0,0,1,0-.22c0-.32,0-.65.05-1v0l.06-1c.3-5.63.61-12.1.83-18.81a43.08,43.08,0,0,0-3.61-19.76c-.14-.32-.28-.63-.44-.94a42.44,42.44,0,0,0-5.76-9,90,90,0,0,0-7.4-7.36c-5-4.57-10.05-8.68-14.56-12.1s-8.49-6.16-11.33-8c-2.66-1.75-4.32-2.77-4.52-2.89.15.14,1.47,1.27,3.69,3.17s5.71,5,9.66,8.67,8.5,8.06,13.27,12.95l3.62,3.76c1.23,1.3,2.43,2.55,3.51,3.89a43.56,43.56,0,0,1,8.36,16.19c.25.89.46,1.79.65,2.68a44.88,44.88,0,0,1,.73,5.09c.09.84.1,1.68.16,2.52s0,1.74.07,2.6c.21,6.88.48,13.23.76,18.65,0,.17,0,.34,0,.51a1.34,1.34,0,0,1,0,.2c0,.1,0,.21,0,.31s0,.15,0,.22,0,.19,0,.28,0,.16,0,.24,0,.18,0,.27,0,.15,0,.22,0,.18,0,.26,0,.17,0,.25,0,.16,0,.24a1.69,1.69,0,0,0,0,.23c0,.09,0,.18,0,.26a1.34,1.34,0,0,1,0,.2c0,.09,0,.19,0,.28s0,.14,0,.21a2,2,0,0,1,0,.25c0,.07,0,.14,0,.21s0,.17,0,.25,0,.14,0,.21,0,.17,0,.25a1.27,1.27,0,0,0,0,.2c0,.08,0,.16,0,.24a1.48,1.48,0,0,1,0,.21c0,.08,0,.16,0,.24s0,.13,0,.19,0,.17,0,.25a1.15,1.15,0,0,1,0,.19c0,.07,0,.15,0,.23s0,.13,0,.19,0,.17,0,.26a.71.71,0,0,1,0,.14c0,.1,0,.19,0,.29s0,.09,0,.13a3,3,0,0,0,0,.31v.08c0,.13,0,.25,0,.37v0c0,.4,0,.78.07,1.16s0,.74.07,1.09v0q0,.3,0,.57a.13.13,0,0,1,0,.06l0,.53v0c0,.37.05.72.07,1.05A248.64,248.64,0,0,1,432,432.07q-4.17,4.17-8.53,8.14-3,2.75-6.12,5.38a250.24,250.24,0,0,1-22.21,16.89q-3.61,2.44-7.32,4.75c2.51-14.18,6-29.13,5.23-33.31-.44-2.33-1.27-8.76-8.79,8.21l-.32-.05a2.5,2.5,0,0,0-.91.05,73.82,73.82,0,0,0,7.25-16,72,72,0,0,0,3.36-20.79c0-2.63-.95-2.61-1,0a71.26,71.26,0,0,1-3.89,20.82,2,2,0,0,0-.08.22,1.74,1.74,0,0,1,.05-.22s0-.05,0-.07l0,.07c0,.06,0,.17-.08.33A71.5,71.5,0,0,1,327.22,474a33.46,33.46,0,0,0-4.68.74c-1.21.34-2,.78-2,1.25s.78.86,2.05,1.11l.76.13a15.09,15.09,0,0,0,4.16,0,73.74,73.74,0,0,0,46.84-23.57,71.42,71.42,0,0,0,6.44-8.07l-.25,1.11-6.4,28.5c-6.94,3.75-14.06,7.17-21.3,10.23a247,247,0,0,1-46.73,14.51A250.61,250.61,0,0,1,255.93,505h-.4c0-2-.07-3.08-.07-3.08s0,1.12-.08,3.08a251.21,251.21,0,0,1-49.64-5.06,247.59,247.59,0,0,1-69.15-25.35L129,441.2c.26.38.54.75.81,1.12a74.65,74.65,0,0,0,11.45,12.32,73.39,73.39,0,0,0,27.34,14.66,57.35,57.35,0,0,0,7.63,1.76l3.88.64c1.28.24,2.6.2,3.9.32a68,68,0,0,0,15.68-.45,18.76,18.76,0,0,0,5.46-1.56c1.4-.67,2.2-1.41,2.05-1.94-.3-1.05-3.92-.93-8.08-.27a64.61,64.61,0,0,1-14.9.74c-1.24-.09-2.5,0-3.73-.23l-3.71-.52a55.47,55.47,0,0,1-7.33-1.53,70.88,70.88,0,0,1-26.59-13.54,72.19,72.19,0,0,1-18.71-23.42q-.8-1.57-1.5-3.18a71.64,71.64,0,0,1-6-26c-.18-3-1.31-3-1.19,0a73.17,73.17,0,0,0,5.31,25.93l.5,1.2c-.25-.44-.48-.84-.71-1.2-3.68-5.95-4.27-1.84-4.61,0,0,0,0,0,0,.05-.89,4.84,3.92,24.12,6.32,39.93q-2.78-1.77-5.51-3.61A250.07,250.07,0,0,1,91.29,442.8q-3.11-2.74-6.14-5.6-2.69-2.52-5.29-5.13A252.39,252.39,0,0,1,59.1,408.52c0-.23,0-.46,0-.69a.13.13,0,0,1,0-.06q0-.31,0-.66s0,0,0-.07c0-.48.05-1,.08-1.46,0,0,0-.06,0-.09l0-.64a1.15,1.15,0,0,0,0-.19l0-.53c0-.08,0-.16,0-.24s0-.34,0-.51,0-.17,0-.25c0-.25,0-.5,0-.75.3-5.63.6-12.09.83-18.81A45,45,0,0,1,62.91,369a41,41,0,0,1,1.73-4.14,45,45,0,0,1,5-8.17c2-2.51,4.39-4.93,6.67-7.37,4.61-4.82,9.19-9.33,13.28-13.19s7.67-7.05,10.23-9.28l4.09-3.51s-1.52.92-4.13,2.64-6.33,4.25-10.67,7.53-9.32,7.31-14.45,12c-1.29,1.16-2.58,2.37-3.87,3.61s-2.64,2.53-3.91,4a42.19,42.19,0,0,0-5.74,8.37c-.24.47-.48.93-.7,1.4A42.75,42.75,0,0,0,56.92,374a42,42,0,0,0-.59,5.65c-.06.93,0,1.86,0,2.77s.05,1.75.08,2.61c.2,6.88.48,13.23.75,18.64,0,.21,0,.41,0,.62v.06l0,.55v0q0,.6.06,1.17-1.69-2.24-3.34-4.52V377.72a42.38,42.38,0,0,1,11.8-29.28,263.85,263.85,0,0,1,35.22-30.78c1-.72,2-1.44,3-2.14a261.54,261.54,0,0,1,52.73-28.9l-4.06,94.89a8.14,8.14,0,1,0,16.27,0l-4.19-98q9.11-3.34,18.43-6a5.4,5.4,0,0,0-.4,1.52,5.15,5.15,0,0,0,1.33,4.07l.27.26a4.86,4.86,0,0,0,1.74,1.06l-.21,2.37a5,5,0,0,0-1.56.53l-.25.14a5.17,5.17,0,0,0-1,8l.28.26a4.9,4.9,0,0,0,1.76,1c-.05.79-.09,1.59-.13,2.39a5.09,5.09,0,0,0-1.52.58l-.23.15a5.17,5.17,0,0,0-.66,8.07l.29.24a5,5,0,0,0,1.75.91c0,.8,0,1.61,0,2.41a5,5,0,0,0-1.45.63,1.88,1.88,0,0,0-.23.16,5.08,5.08,0,0,0-2.13,4.2,5.19,5.19,0,0,0,1.79,3.88l.29.24a5.21,5.21,0,0,0,1.64.8l-.1,2.54a5.13,5.13,0,0,0-1.14.59l-.23.16a5.19,5.19,0,0,0-2,4.28,5,5,0,0,0,1.9,3.82l.31.22a5.13,5.13,0,0,0,.72.41l-.15,3.5h0l-.22.17a5.07,5.07,0,0,0-1.82,4.35,5.2,5.2,0,0,0,1.72,3.47l-.29,6.76a5.33,5.33,0,0,0-.24,2.23,6.18,6.18,0,0,0,.12.62l-1.78,41.58a8.14,8.14,0,0,0,12,7.49A5.15,5.15,0,0,0,196,406.2l.35.14a5,5,0,0,0,1.8.27l.79,2.38a4.94,4.94,0,0,0-1,1l-.16.22a5.15,5.15,0,0,0-.54,4.72,5.23,5.23,0,0,0,3.07,3l.36.12a5,5,0,0,0,1.69.17c.32.8.65,1.59,1,2.39a5.18,5.18,0,0,0-.84,1l-.15.24a5.1,5.1,0,0,0-.38,4.31c.06.15.12.3.19.45a5.22,5.22,0,0,0,3.29,2.82,2.37,2.37,0,0,0,.36.09,4.75,4.75,0,0,0,1.64.05c.39.78.8,1.56,1.21,2.33a5.08,5.08,0,0,0-.73,1,2,2,0,0,0-.13.25,5.24,5.24,0,0,0,3.76,7.3,2.32,2.32,0,0,0,.38.06,5,5,0,0,0,1.71-.12c.46.72.94,1.44,1.43,2.14a4.36,4.36,0,0,0-.68,1.18c0,.09-.07.18-.1.26a5.26,5.26,0,0,0,4.64,6.87h.38a4.79,4.79,0,0,0,1.86-.41c.54.62,1.09,1.24,1.65,1.84a4.72,4.72,0,0,0-.62,1.42l-.06.28a5.32,5.32,0,0,0,5.39,6.16l.36,0a2.5,2.5,0,0,0,.38-.06,4.66,4.66,0,0,0,1.88-.82l.76.6a44.81,44.81,0,0,1-5.85,3.77,23.2,23.2,0,0,1-2.2,1,8.26,8.26,0,0,1-1.7.63l-1.39.43,1.25-.33a23.74,23.74,0,0,0,3.66-1.35,44.79,44.79,0,0,0,6.59-3.92c.26.2.52.4.79.59a4.78,4.78,0,0,0-.38,1.67v.28a5.07,5.07,0,0,0,2.57,4.27,5.19,5.19,0,0,0,4.21.61l.35-.11.35-.15a4.36,4.36,0,0,0,1.79-1.51c.71.3,1.42.57,2.14.82a4.59,4.59,0,0,0,.06,2c0,.1,0,.2.08.29a4.29,4.29,0,0,0,1.56,2.19,6.46,6.46,0,0,0,2.3,1.15,5.89,5.89,0,0,0,4.29-.79l.33-.27.27-.26a4.63,4.63,0,0,0,.68-.9,4.51,4.51,0,0,0,.52-1.35l1.07,0v4h-2.47a9.51,9.51,0,0,0-2.68,1.3c-.14.1-.29.2-.42.31a9.82,9.82,0,0,0-3.77,6.51c0,.34-.07.68-.08,1v.28a9.83,9.83,0,0,0,3.39,7.44l.38.32a9.84,9.84,0,0,0,5.68,2.1h.53a9.79,9.79,0,0,0,5.19-1.54l.45-.31a9.86,9.86,0,0,0,.74-15.45c-.18-.15-.37-.31-.56-.45a9.87,9.87,0,0,0-3.21-1.6h-.25a0,0,0,0,1,0,0h-.88s0,0,0,0h-1.15v-4h.28a4.31,4.31,0,0,0,.38,1.28,3.83,3.83,0,0,0,.45.75l.17.22a4.4,4.4,0,0,0,.62.6,5.16,5.16,0,0,0,4.23,1.06,6.42,6.42,0,0,0,2.18-.77,5.29,5.29,0,0,0,1.15-1.06,5.92,5.92,0,0,0,.35-.48c.06-.09.11-.19.16-.28a2.91,2.91,0,0,0,.18-.35,4.47,4.47,0,0,0,.34-2.45c.72-.22,1.44-.45,2.15-.71a4.51,4.51,0,0,0,1.4,1.45l.24.15a4.73,4.73,0,0,0,.79.37,5.33,5.33,0,0,0,4.26-.41,5.27,5.27,0,0,0,2.65-3.31c0-.12.06-.24.08-.36s0-.24.05-.37a4.39,4.39,0,0,0-.36-2.25c.34-.23.68-.46,1-.7a41.4,41.4,0,0,0,4.57,2.63c.8.44,1.59.68,2.24,1a9.27,9.27,0,0,0,1.72.57c.63.17,1.07.29,1.3.34l-1.13-.35a23.15,23.15,0,0,1-3.58-1.45,42.69,42.69,0,0,1-4.81-2.93l.58-.42a4.69,4.69,0,0,0,1.61.91l.29.09a5.67,5.67,0,0,0,.84.15,5.51,5.51,0,0,0,3.91-1.41,5.32,5.32,0,0,0,1.73-4.12,2.31,2.31,0,0,0,0-.37,4.54,4.54,0,0,0-.69-1.93c.56-.57,1.12-1.16,1.66-1.75a4.91,4.91,0,0,0,1.53.46l.28,0a5.09,5.09,0,0,0,4.41-2,5,5,0,0,0,1-4.26c0-.12-.06-.25-.09-.37a4.8,4.8,0,0,0-.85-1.63c.49-.69,1-1.38,1.44-2.08a4.54,4.54,0,0,0,1.41.2h.28a5.23,5.23,0,0,0,4.1-2.51,5.28,5.28,0,0,0,.48-4.34c0-.12-.08-.23-.13-.35a4.73,4.73,0,0,0-1-1.49c.41-.74.8-1.48,1.19-2.23a5.08,5.08,0,0,0,1.4.06l.28,0a5,5,0,0,0,3.81-2.87,5.29,5.29,0,0,0,.53-2.43,5.06,5.06,0,0,0-.42-1.89l-.17-.34a4.87,4.87,0,0,0-1.18-1.46c.33-.75.65-1.51,1-2.28a4.71,4.71,0,0,0,1.5,0l.28-.06a5.22,5.22,0,0,0,3.34-7.43c-.06-.11-.12-.22-.19-.33a5,5,0,0,0-1.38-1.44c.27-.76.54-1.52.79-2.27a5.16,5.16,0,0,0,1.62-.14l.27-.07a5.14,5.14,0,0,0,2.17-1.35,8.14,8.14,0,0,0,11.52-7.75l-1.7-39.88a5.19,5.19,0,0,0,1.89-3.4,5.07,5.07,0,0,0-1.27-4.08l-.26-.27a5.76,5.76,0,0,0-.72-.56l-.13-3a5,5,0,0,0,.93-.36l.25-.14a5.07,5.07,0,0,0,2.48-4,5.14,5.14,0,0,0-1.42-4l-.27-.26a4.83,4.83,0,0,0-1.62-1l.15-2.46a5.19,5.19,0,0,0,1.39-.53l.24-.15a5.13,5.13,0,0,0,.75-8.06l-.28-.25A5,5,0,0,0,326,326c0-.82.05-1.63.06-2.45a4.92,4.92,0,0,0,1.41-.6l.23-.15a5.13,5.13,0,0,0,2.17-4.17,5.05,5.05,0,0,0-1.71-3.91l-.29-.24a5,5,0,0,0-1.74-.86l0-2.42a5.12,5.12,0,0,0,1.42-.66l.23-.16a5.18,5.18,0,0,0,.16-8.1l-.29-.22a4.78,4.78,0,0,0-1.83-.8c0-.8-.07-1.6-.11-2.4a5.12,5.12,0,0,0,1.44-.72l.22-.18a5.16,5.16,0,0,0-.13-8.09l-.31-.22a5,5,0,0,0-1.88-.74c-.06-.79-.12-1.59-.19-2.38a5.09,5.09,0,0,0,1.43-.78l.21-.18a5.18,5.18,0,0,0-.44-8.09l-.31-.2a5,5,0,0,0-1.89-.67c0-.05,0-.1,0-.15q10.23,2.76,20.22,6.33L339.7,384.72a8.14,8.14,0,1,0,16.27,0l-4.23-99.05a261.85,261.85,0,0,1,55.1,29.85c1,.7,2,1.42,3,2.14a263.33,263.33,0,0,1,33.28,28.79,42,42,0,0,1,12,29.5ZM179.94,202.9a3.31,3.31,0,1,1-3.79-3.26v-4.59a3.38,3.38,0,0,1-1.22-.78c-4.8-4.76-10.81-14.71-10.81-34.71,0-16.93,16.65-20.95,16.65-12.34v44.57a3.47,3.47,0,0,1-3.75,3.46v4.38A3.3,3.3,0,0,1,179.94,202.9Zm112.92,33.28h-.92l-6.26-31.8a3.44,3.44,0,0,0-3.38-2.78H226.74a3.45,3.45,0,0,0-3.38,2.78l-6.26,31.8h-.92l-32-38.12V157.55c0-33.92,10.28-61.41,44.2-61.41h52.23c33.92,0,44.19,27.49,44.19,61.41v40.51ZM323.58,313l-.07-1.74h.05C323.57,311.81,323.57,312.39,323.58,313Zm-.31-11.6-.18.06-.11-2.5.17,0Zm-12,93-.18,4.17a3.45,3.45,0,0,0-.46.12l-.25.09a5.18,5.18,0,0,0-2.83,2.58,4.4,4.4,0,0,0-.21.5l-.05.12a5.16,5.16,0,0,0,.48,4.15l.14.22a5,5,0,0,0,1.7,1.63c-.24.71-.49,1.42-.74,2.13a5.14,5.14,0,0,0-2.07.1l-.26.07a5.21,5.21,0,0,0-3,2.4,3.58,3.58,0,0,0-.24.48.61.61,0,0,0,0,.12,5.14,5.14,0,0,0,.21,4.16l.12.22a5.13,5.13,0,0,0,1.68,1.79c-.29.69-.58,1.37-.88,2.05a5.09,5.09,0,0,0-2.16-.07l-.26.05a5.21,5.21,0,0,0-3.14,2.16,4.25,4.25,0,0,0-.27.46.67.67,0,0,0-.06.12,5.23,5.23,0,0,0-.48,2,5.17,5.17,0,0,0,.37,2.14l.1.24a5,5,0,0,0,1.55,1.93c-.35.66-.7,1.31-1.06,2a5.36,5.36,0,0,0-2.13-.26l-.26,0a5.07,5.07,0,0,0-3.33,1.86l-.29.42-.07.12a5,5,0,0,0-.5,4.07c0,.08.05.16.08.25a5.29,5.29,0,0,0,1.29,2c-.42.62-.85,1.24-1.28,1.85a5.21,5.21,0,0,0-2-.46h-.27a5.25,5.25,0,0,0-3.46,1.45,3.15,3.15,0,0,0-.36.37l-.09.1a5.18,5.18,0,0,0-1,4,2,2,0,0,0,0,.24,5.18,5.18,0,0,0,1,2.1q-.75.85-1.53,1.68a5.37,5.37,0,0,0-1.86-.72l-.26,0a5,5,0,0,0-3.68.87l-.3.24-.13.12A4.69,4.69,0,0,0,277,456c0,.11,0,.22,0,.34v.25a5.34,5.34,0,0,0,.49,2.15l-1.13.8a59,59,0,0,1-4.61-3.86A69.51,69.51,0,0,1,259,440.39,33.14,33.14,0,0,1,254.75,430a14.37,14.37,0,0,1-.38-2.84.49.49,0,0,1,0-.12q0-.45.06-.9c0-.65,0-1.29,0-1.94v-7.87l.08.2,57.3-143c1.51.33,3,.67,4.52,1l-4.88,114.1a5.34,5.34,0,0,0-.63,1.09,5.17,5.17,0,0,0-.18.51l0,.13A5.17,5.17,0,0,0,311.22,394.35Zm-44.2,70c-.75.27-1.5.52-2.26.74a6,6,0,0,0-1-1.2l-.2-.17c-.17-.13-.34-.26-.51-.37a5,5,0,0,0-1.64-.67,3.71,3.71,0,0,0-1.18-.17l-.45,0-.12,0a5.05,5.05,0,0,0-3,1.79l-.2.27-.14.21a5.93,5.93,0,0,0-.77,1.67c-.8,0-1.6,0-2.41-.06a5.68,5.68,0,0,0-.52-1.45l-.13-.23a4.45,4.45,0,0,0-.33-.51,4.62,4.62,0,0,0-2.3-1.85l-.43-.11-.13,0a4.41,4.41,0,0,0-3.45.58l-.28.16-.21.14a5.43,5.43,0,0,0-1.43,1.4c-.73-.26-1.45-.54-2.17-.85a6.13,6.13,0,0,0,.05-1.76c0-.09,0-.18,0-.26s-.09-.43-.14-.63a4.93,4.93,0,0,0-1.65-2.5l-.39-.3-.1-.07a5.17,5.17,0,0,0-3.9-.48l-.24.07a5.45,5.45,0,0,0-1.91,1.05l-.23-.18c1-.76,2-1.6,3-2.5a68.47,68.47,0,0,0,13.13-15.23,34.64,34.64,0,0,0,4.37-9.95,36.74,36.74,0,0,0,3.59,8.55,65.1,65.1,0,0,0,12.91,15.64,66.6,66.6,0,0,0,5.7,4.62l-.38.26a5.53,5.53,0,0,0-1.56-1l-.25-.1a4.82,4.82,0,0,0-.61-.2,4.75,4.75,0,0,0-3,.16,3.79,3.79,0,0,0-.42.18l-.11,0a4.82,4.82,0,0,0-2.26,2.75c0,.11-.07.21-.1.32a1.12,1.12,0,0,0-.06.23A5.44,5.44,0,0,0,267,464.39Zm-35.87-12.57q-.15-.19-.33-.39l-.08-.09A5.12,5.12,0,0,0,227,450h-.25a5.3,5.3,0,0,0-2.15.68c-.51-.57-1-1.14-1.51-1.72a5.47,5.47,0,0,0,.91-1.74c0-.09.05-.17.07-.26a5,5,0,0,0-.48-3.75,2.92,2.92,0,0,0-.24-.37l-.1-.14a4.9,4.9,0,0,0-3.57-2l-.26,0a5.44,5.44,0,0,0-2.34.41c-.42-.62-.83-1.24-1.24-1.87a5.26,5.26,0,0,0,1.22-1.72,2.44,2.44,0,0,0,.1-.24,5.17,5.17,0,0,0,0-3.79,5.11,5.11,0,0,0-.22-.48l-.06-.12a5.21,5.21,0,0,0-3.35-2.4l-.25-.05a5.12,5.12,0,0,0-2.42.17c-.35-.66-.69-1.33-1-2a5.28,5.28,0,0,0,1.37-1.58l.12-.23a6.21,6.21,0,0,0,.26-.59,5.1,5.1,0,0,0,.07-3.23,4.84,4.84,0,0,0-.18-.49l-.06-.12a5.14,5.14,0,0,0-3.13-2.71l-.25-.07a5.27,5.27,0,0,0-2.34-.06c-.29-.7-.58-1.4-.86-2.11a5.25,5.25,0,0,0,1.41-1.41c.05-.08.1-.15.14-.23a5,5,0,0,0,.6-3.79c0-.17-.1-.33-.16-.5s0-.08,0-.13a5.1,5.1,0,0,0-2.94-2.94l-.24-.09a5.18,5.18,0,0,0-2.19-.23c-.25-.74-.49-1.48-.73-2.22a5.28,5.28,0,0,0,1.37-1.25l.16-.22a5.06,5.06,0,0,0,.82-3.75,4.7,4.7,0,0,0-.12-.51c0-.05,0-.09,0-.14a5.07,5.07,0,0,0-2.76-3.12l-.23-.1a4.92,4.92,0,0,0-2.06-.36l-.21-.77-.08-1.76a5.06,5.06,0,0,0,1-.9l.17-.21a5.06,5.06,0,0,0,1-3.71,4.34,4.34,0,0,0-.09-.52l0-.14a5.14,5.14,0,0,0-2.45-3.18l-.27-6.39a5.23,5.23,0,0,0,.13-1.53,4.78,4.78,0,0,0-.06-.53l0-.13a5.69,5.69,0,0,0-.16-.59l-4.06-95,.06-.22c0-.17.07-.35.1-.52s0-.09,0-.14a5,5,0,0,0-.31-2.4l-.12-2.69q2.49-.6,5-1.17l55.71,139.05c0,1.77,0,3.52,0,5.26s0,3.6,0,5.42c0,.85,0,1.7,0,2.56v.19l.06.68-.15,2A33.58,33.58,0,0,1,249.27,439a61.66,61.66,0,0,1-5.86,8.66,77.7,77.7,0,0,1-6.55,7.05c-1.38,1.32-2.75,2.52-4.08,3.6l-.74-.59-.41-.34a5.41,5.41,0,0,0,.54-1.8l0-.26c0-.22,0-.44,0-.65A5.09,5.09,0,0,0,231.15,451.82Zm-5-215.64,5-25.54h2.49a15.2,15.2,0,0,0,14.31,10h13.11a15.22,15.22,0,0,0,14.31-10h2.47l5,25.54Zm108.8-33.28a3.31,3.31,0,1,1-3.78-3.26V195.2a3.44,3.44,0,0,1-2.88-3.41V147.22c0-8.61,16.64-4.59,16.64,12.34,0,20-6,29.95-10.8,34.71a3.36,3.36,0,0,1-2.1,1v4.38A3.3,3.3,0,0,1,334.94,202.9Zm150.43,150a249.73,249.73,0,0,1-21.59,40.25V376a50.73,50.73,0,0,0-6.35-24.64l0-.15v-.78c0-17.82-14.57-33.69-27.42-47.7-3.91-4.27-7.6-8.29-10.54-12l-54.45-69v-70.2a112.47,112.47,0,0,0-32.29-79.13,108.91,108.91,0,0,0-78.28-33.13h0l-2.21,0C192.56,40.48,144,90.06,144,149.8v71.92L89.64,290.53c-2.92,3.7-6.59,7.71-10.46,12-12.92,14.13-27.55,30.15-27.49,48.11v.78l.18.76.09.37a50.67,50.67,0,0,0-6.7,25.22v10.87A247.79,247.79,0,0,1,7.06,256a250.68,250.68,0,0,1,5.06-50.19,247.79,247.79,0,0,1,37.46-89A249.68,249.68,0,0,1,159.14,26.57a247.25,247.25,0,0,1,46.73-14.51A250.13,250.13,0,0,1,254.42,7h4a251.51,251.51,0,0,1,47.75,5.05,247,247,0,0,1,46.73,14.51A249.18,249.18,0,0,1,485.37,352.92ZM332,192.9a1.28,1.28,0,0,0,.82-1.2,1.29,1.29,0,1,0-1.68,1.23v2.27l.86.05Zm-155,0a1.29,1.29,0,1,0-.86,0v2.12l.86.2Zm-.46-2.49a1.29,1.29,0,0,0-.4,2.52v2.12l.86.2V192.9a1.29,1.29,0,0,0-.46-2.49Zm155,0a1.29,1.29,0,0,0-.39,2.52v2.27l.86.05V192.9a1.28,1.28,0,0,0,.82-1.2A1.29,1.29,0,0,0,331.55,190.41Z"/>
      <path d="M451.12,354.24v0h0Z"/>
      <path d="M178.05,420.49a8.08,8.08,0,1,0,8.07,8.08,8,8,0,0,0-.36-2.41A8.08,8.08,0,0,0,178.05,420.49Z"/>
      <path d="M342,420.49a8.07,8.07,0,0,0-7.71,5.67,8,8,0,0,0-.37,2.41,8.08,8.08,0,0,0,16.15,0,8.09,8.09,0,0,0-8.07-8.08Z"/>
      <path d="M261.54,113.35h39.3a1.72,1.72,0,1,0,0-3.44H258.22A7.83,7.83,0,0,1,261.54,113.35Z"/>
      <path d="M206.48,111.63a1.72,1.72,0,0,0,1.72,1.72h39.3a7.88,7.88,0,0,1,3.32-3.44H208.2A1.72,1.72,0,0,0,206.48,111.63Z"/>
      <path d="M208.2,115.08a1.72,1.72,0,0,0,0,3.44h38.7a7.88,7.88,0,0,1,0-3.44Z"/>
      <path d="M300.84,118.52a1.72,1.72,0,1,0,0-3.44H262.15a7.88,7.88,0,0,1,0,3.44Z"/>
      <path d="M208.2,123.69h42.62a7.9,7.9,0,0,1-3.32-3.45H208.2a1.73,1.73,0,0,0,0,3.45Z"/>
      <path d="M302.57,122a1.73,1.73,0,0,0-1.73-1.72h-39.3a7.85,7.85,0,0,1-3.32,3.45h42.62A1.74,1.74,0,0,0,302.57,122Z"/>
      <path d="M266,158.42a25.29,25.29,0,0,0,36.95,0C285.05,170.12,266,158.42,266,158.42Z"/>
      <path d="M203.46,158.42a25.29,25.29,0,0,0,36.95,0C222.51,170.12,203.46,158.42,203.46,158.42Z"/>
      <path d="M211.25,134.82a23.66,23.66,0,0,1,25.1,1.12,23.21,23.21,0,0,1,8,9.86c.71,1.62,2.24,2.72,3.73,2.31s2.1-2.54,1.07-4.56a28.09,28.09,0,0,0-10.42-11.29,27.45,27.45,0,0,0-14.6-4,27,27,0,0,0-14.22,4.32,26.55,26.55,0,0,0-9.59,11c-.62,1.34.83,1.93,1.47.74A24.56,24.56,0,0,1,211.25,134.82Z"/>
      <path d="M288,128.3a27.42,27.42,0,0,0-14.6,4,28.11,28.11,0,0,0-10.43,11.29c-1,2-.35,4.18,1.08,4.56s3-.69,3.72-2.31a23.18,23.18,0,0,1,20.27-14,23.83,23.83,0,0,1,12.85,3,24.47,24.47,0,0,1,9.44,9.57c.64,1.19,2.1.6,1.48-.74a26.55,26.55,0,0,0-9.59-11A27,27,0,0,0,288,128.3Z"/>
      <path d="M250.39,150.37h-1.72v32.44A6,6,0,0,0,249,194.7a5.85,5.85,0,0,0,11,0,6,6,0,0,0,.35-11.93V150.37h-1.72v42.36a4.14,4.14,0,1,1-8.27,0Z"/>
      <path d="M146.39,305.92a34.14,34.14,0,0,1-1.7,4.34,30.91,30.91,0,0,1-3.14,5.3,24.86,24.86,0,0,1-2.14,2.45l-1.13,1.15-1.23,1a23.35,23.35,0,0,1-5.5,3.28,27.32,27.32,0,0,1-5.9,1.7,28.94,28.94,0,0,1-4.63.55l-1.84.15,1.64.32,1.93.34a11.84,11.84,0,0,0,2.56.21c1,0,2,.08,3.1,0s2.27-.33,3.49-.58a36.64,36.64,0,0,0,3.63-1.34,19,19,0,0,0,3.44-2.19,19.41,19.41,0,0,0,5.05-6,25.06,25.06,0,0,0,2.28-6.2,25.35,25.35,0,0,0,.59-4.49,13,13,0,0,0,0-1.69S146.74,304.82,146.39,305.92Z"/>
      <path d="M397.2,324.78a15.78,15.78,0,0,1-2.25-.7,38.69,38.69,0,0,1-11.19-5.64,31.88,31.88,0,0,1-8.37-9.15,24.86,24.86,0,0,1-2.45-5.16,13.83,13.83,0,0,0,.13,1.75,22.65,22.65,0,0,0,1.1,4.45,23,23,0,0,0,7.76,10.59,25.27,25.27,0,0,0,12.26,4.56,26,26,0,0,0,4.55.23l1.76,0-1.54-.44Z"/>
    </g>
  </g>
</svg>
